<?xml version="1.0" encoding="UTF-8"?>
<svg id="Layer_1" xmlns="http://www.w3.org/2000/svg" version="1.1" xmlns:xlink="http://www.w3.org/1999/xlink" viewBox="0 0 449 449">
  <!-- Generator: Adobe Illustrator 29.1.0, SVG Export Plug-In . SVG Version: 2.1.0 Build 142)  -->
  <defs>
    <style>
      .st0 {
        fill: url(#linear-gradient2);
      }

      .st1 {
        fill: url(#Eye1);
      }

      .st2 {
        fill: url(#linear-gradient1);
      }

      .st3 {
        fill: url(#linear-gradient8);
      }

      .st4 {
        fill: url(#linear-gradient4);
      }

      .st5 {
        fill: url(#Eye);
      }

      .st6 {
        fill: url(#linear-gradient5);
      }

      .st7 {
        fill: url(#linear-gradient3);
      }

      .st8 {
        fill: url(#linear-gradient7);
        fill-rule: evenodd;
      }

      .st9 {
        fill: url(#linear-gradient6);
      }

      .st10 {
        fill: url(#linear-gradient);
      }
    </style>
    <linearGradient id="linear-gradient" x1="-2569" y1="3776.4" x2="-2582.5" y2="3906.6" gradientTransform="translate(4651 -6285.7) scale(1.8)" gradientUnits="userSpaceOnUse">
      <stop offset="0" stop-color="#502d95"/>
      <stop offset="0" stop-color="#6d37ac"/>
      <stop offset=".6" stop-color="#6786d1"/>
    </linearGradient>
    <linearGradient id="linear-gradient1" x1="-2490.8" y1="3784.5" x2="-2504.3" y2="3914.7" gradientTransform="translate(4651 -6285.7) scale(1.8)" gradientUnits="userSpaceOnUse">
      <stop offset="0" stop-color="#502d95"/>
      <stop offset="0" stop-color="#6d37ac"/>
      <stop offset=".6" stop-color="#6786d1"/>
    </linearGradient>
    <linearGradient id="linear-gradient2" x1="-2220.1" y1="3490.6" x2="-2220.1" y2="3609" gradientTransform="translate(5022.7 -7074.1) scale(2.1)" gradientUnits="userSpaceOnUse">
      <stop offset="0" stop-color="#763dcd"/>
      <stop offset=".2" stop-color="#8d61eb"/>
      <stop offset=".4" stop-color="#8c86ec"/>
      <stop offset=".6" stop-color="#748ce8"/>
      <stop offset=".9" stop-color="#6ba1e6"/>
    </linearGradient>
    <linearGradient id="linear-gradient3" x1="-2279.4" y1="3490.6" x2="-2279.4" y2="3609" gradientTransform="translate(5022.7 -7074.1) scale(2.1)" gradientUnits="userSpaceOnUse">
      <stop offset="0" stop-color="#763dcd"/>
      <stop offset=".2" stop-color="#8d61eb"/>
      <stop offset=".4" stop-color="#8c86ec"/>
      <stop offset=".6" stop-color="#748ce8"/>
      <stop offset=".9" stop-color="#6ba1e6"/>
    </linearGradient>
    <linearGradient id="linear-gradient4" x1="-2310.3" y1="3490.6" x2="-2310.3" y2="3609" gradientTransform="translate(5022.7 -7074.1) scale(2.1)" gradientUnits="userSpaceOnUse">
      <stop offset="0" stop-color="#763dcd"/>
      <stop offset=".2" stop-color="#8d61eb"/>
      <stop offset=".4" stop-color="#8c86ec"/>
      <stop offset=".6" stop-color="#748ce8"/>
      <stop offset=".9" stop-color="#6ba1e6"/>
    </linearGradient>
    <linearGradient id="linear-gradient5" x1="-2250.7" y1="3490.6" x2="-2250.7" y2="3609" gradientTransform="translate(5022.7 -7074.1) scale(2.1)" gradientUnits="userSpaceOnUse">
      <stop offset="0" stop-color="#763dcd"/>
      <stop offset=".2" stop-color="#8d61eb"/>
      <stop offset=".4" stop-color="#8c86ec"/>
      <stop offset=".6" stop-color="#748ce8"/>
      <stop offset=".9" stop-color="#6ba1e6"/>
    </linearGradient>
    <linearGradient id="linear-gradient6" x1="-2059.9" y1="3614.1" x2="-1911.3" y2="3779.2" gradientTransform="translate(3826.8 -6342.3) scale(1.8)" gradientUnits="userSpaceOnUse">
      <stop offset="0" stop-color="#c395fc"/>
      <stop offset="1" stop-color="#4f65f5"/>
    </linearGradient>
    <linearGradient id="Eye" x1="54.2" y1="90.5" x2="394.4" y2="90.5" gradientUnits="userSpaceOnUse">
      <stop offset="0" stop-color="#0043a2"/>
      <stop offset="1" stop-color="#00133a"/>
    </linearGradient>
    <linearGradient id="linear-gradient7" x1="-353.7" y1="7760.7" x2="-353.7" y2="7977.4" gradientTransform="translate(327.7 -3910.7) scale(.5)" gradientUnits="userSpaceOnUse">
      <stop offset="0" stop-color="#fff" stop-opacity=".4"/>
      <stop offset="1" stop-color="#fff" stop-opacity="0"/>
    </linearGradient>
    <linearGradient id="linear-gradient8" x1="-1365.8" y1="4982.7" x2="-1499.6" y2="5081" gradientTransform="translate(1672.2 -4927.7) scale(1)" gradientUnits="userSpaceOnUse">
      <stop offset="0" stop-color="#f9f9f9"/>
      <stop offset="1" stop-color="#f9f9f9" stop-opacity="0"/>
    </linearGradient>
    <linearGradient id="Eye1" data-name="Eye" x1="-1514" y1="4124.8" x2="-1449.3" y2="4190.8" gradientTransform="translate(2343.7 -5735) scale(1.4)" xlink:href="#Eye"/>
  </defs>
  <path class="st10" d="M170.9,314l-27-6s-6.2,39.6-8.6,59.5c-3.8,32.1-8.4,76.5-6.6,110.5,2,37.4,12.2,73.4,15.6,73.4s-1.8-22.9.5-73.3c1.5-33.6,7.1-74,13.8-110.5,3.3-18,12.9-53.4,12.9-53.4h-.6v-.2Z"/>
  <path class="st2" d="M284.8,311.2h8.3c11.1,41.4,13.2,101.1,10.8,146.1-2.6,49.5-16.2,97.2-20.6,97.2s2.4-30.3-.7-97.1c-2.2-44.5-11.6-86.4-12.6-146.2h14.8Z"/>
  <path class="st0" d="M309.8,181.6h13.3c17.8,66.2,26.1,161.9,22.2,234-4.2,79.4-25.9,155.7-33.1,155.7s3.8-48.6-1.1-155.6c-3.3-71.4-23.5-138.4-25.1-234.2h23.8Z"/>
  <path class="st7" d="M196.6,180.1h-13.3c-17.8,66.2-26.1,161.9-22.2,234,4.2,79.4,25.9,155.7,33.1,155.7s-3.8-48.6,1.1-155.6c3.3-71.4,23.5-138.4,25.1-234.2h-23.8Z"/>
  <path class="st4" d="M155.6,150l-30.2-10.8s-11.1,70.7-15.3,106.2c-6.7,57.3-20,136.6-16.7,197.3,3.6,66.8,21.8,131.1,27.8,131.1s-3.2-40.9,1-131c2.8-60.1,21.2-117,27.4-197.4,2.5-31.9,7.3-95.5,7.3-95.5h-1.3Z"/>
  <path class="st6" d="M255.5,181.6l-27.3,4.6s3.6,53,3.6,83.1c0,48.9,1.9,98.2,1.8,149.5-.2,58.9,9.7,157.6,14.8,157.6s21.7-127,25.2-203c2.3-50.7-5.2-95.1-6.5-125.4-1.2-27-5-63.4-5-63.4l-6.6-3Z"/>
  <path class="st9" d="M405.8,197.7c0,68.8-11.7,73-30.8,102.1-13.8,20.9,14.1,37.1,2.9,42.9-13.3,6.9-9.1-5.6-35.6-12.7-11.5-3-36.5.3-46.6,2.3-10,1.9-40.6-15.1-48.7-17.3-12.1-3.3-41.8,12.5-59.9,12.5s-37-15.8-61.1-9.3c-28.6,7.7-63.1,26.3-68.3,20.2-10-11.7,21.9-20.6,10-41.4-7.5-13.2-33.4-47.9-34.2-83C31.1,101.2,124.5,5.9,224.6,5.9s181.1,86.8,181.1,183.9"/>
  <g>
    <g>
      <path d="M84.9,149.9c0,.5-.1,1-.2,1.5,0,.5-.2,1-.3,1.5,3.1.8,6.2,1.6,9.3,2.5-.8,3-1.4,6-2,9.1-12.5-2.4-25-4.8-37.5-7.1.8-4,1.6-7.9,2.6-11.7.8-2.8,1.9-5.3,3.3-7.5,1.4-2.2,3.1-3.9,4.9-5.2,1.8-1.3,3.7-2.1,5.6-2.4,1.9-.3,3.8,0,5.6.6,1.9.8,3.5,1.9,4.8,3.5,1.3,1.6,2.3,3.4,2.9,5.4,5.3-1.4,10.6-2.5,15.8-3.3-1.3,3.2-2.4,6.4-3.5,9.7-3.8.9-7.5,2-11.3,3.3ZM75.8,150.7c.2-1.1.3-2.2.3-3.2,0-1.1-.2-2-.4-2.9-.3-.9-.6-1.6-1.1-2.2-.5-.6-1.1-1-1.8-1.3-.7-.2-1.4-.2-2.1,0-.7.2-1.4.7-2.1,1.3-.7.6-1.3,1.4-1.9,2.4-.6.9-1,2-1.3,3.1,3.5.9,7,1.8,10.4,2.8Z"/>
      <path d="M76,117.3c1.7.9,3.5,1.7,5.2,2.6,2-4.4,4.2-8.6,6.6-12.7,2.5,1.5,5.1,3.1,7.6,4.6-2.2,3.8-4.3,7.8-6.2,12,1.8.9,3.6,1.8,5.5,2.7,2.3-4.9,4.8-9.6,7.5-14,2.5,1.6,5,3.2,7.5,4.7-4,6.5-7.5,13.5-10.4,21.1-11.8-4.9-23.6-9.8-35.4-14.6,3.8-9.7,8.2-18.7,13.3-27.1,2.5,1.6,5,3.2,7.5,4.7-3.1,5.1-6,10.4-8.6,16Z"/>
      <path d="M119.8,74.8c1.8,1.9,3.1,4.1,3.9,6.4.9,2.3,1.3,4.7,1.5,7,1.3.3,2.5.6,3.7.9-.4,2.7-.7,5.4-1,8.1-1.3-.3-2.7-.6-4-.8-.4.9-.8,1.7-1.3,2.5-.5.8-1,1.6-1.7,2.3-1.5,1.8-3.3,3.2-5.4,4.3-2.1,1.1-4.3,1.8-6.6,2.1-2.3.3-4.8.3-7.2-.1-2.5-.4-4.9-1.4-7.1-2.8-2.2-1.5-4-3.3-5.4-5.5-1.3-2.2-2.2-4.7-2.5-7.3-.3-2.6,0-5.3.8-8.1.8-2.8,2.2-5.3,4.2-7.7,2-2.3,4.2-4.1,6.8-5.3,2.5-1.2,5.1-1.8,7.7-1.9,2.6,0,5,.4,7.4,1.4,2.4,1,4.4,2.5,6.2,4.5ZM114.2,95.5c.2-.3.4-.5.4-.6-2.6-.3-5.2-.6-7.8-.8.2-3,.5-6,1-9,2.9.4,5.7.8,8.5,1.3-.2-1-.5-1.9-1-2.8-.5-.9-1.1-1.8-1.9-2.5-1-1-2.1-1.7-3.4-2.2-1.3-.5-2.6-.7-4-.6-1.4,0-2.7.4-4,1.1-1.3.6-2.5,1.6-3.5,2.8-1,1.2-1.7,2.5-2.2,3.9-.4,1.4-.6,2.8-.4,4.2.1,1.4.6,2.7,1.2,3.9.7,1.2,1.6,2.2,2.7,3.1,1.2.9,2.4,1.4,3.7,1.8,1.3.3,2.6.4,3.9.2,1.3-.2,2.5-.5,3.7-1.1,1.2-.6,2.2-1.4,3.1-2.5Z"/>
      <path d="M144,80c-1.4,1-2.9,1.7-4.5,2-1.7.4-3.4.4-5.2.2-1.9-.3-3.6-.8-5.3-1.7-1.7-.9-3.2-2-4.6-3.5-5.3-6-10.7-12.1-16-18.1,2.5-2.2,5-4.3,7.6-6.3,5,6.3,9.9,12.6,14.9,18.9,1,1.2,2.2,1.9,3.8,2.2,1.5.2,2.9-.1,4-.9.6-.4,1-.9,1.4-1.6.3-.6.6-1.3.7-2,.1-.7,0-1.4-.1-2.1-.2-.7-.5-1.4-.9-2.1-4.5-6.6-8.9-13.2-13.4-19.8,2.7-1.8,5.5-3.5,8.3-5.1,4.1,6.8,8.2,13.6,12.2,20.5,1.1,1.7,1.7,3.5,2.1,5.4.3,1.9.4,3.7,0,5.4-.3,1.7-.8,3.3-1.7,4.8-.8,1.5-1.9,2.7-3.3,3.8,0,0,0,0-.1,0Z"/>
      <path d="M149.6,42.3c.9,1.7,1.8,3.5,2.6,5.2,3.9-1.9,7.8-3.6,11.8-5.2,1.1,2.7,2.2,5.5,3.3,8.2-3.8,1.5-7.5,3.1-11.2,4.9.9,1.8,1.8,3.6,2.7,5.4,4.3-2.1,8.7-4,13.3-5.6,1.1,2.8,2.1,5.5,3.2,8.3-6.6,2.4-13,5.3-19.2,8.8-6.4-11.1-12.8-22.2-19.3-33.3,7.9-4.4,16.1-8.2,24.6-11.3,1.1,2.8,2.1,5.5,3.2,8.3-5.1,1.9-10.2,4-15.2,6.4Z"/>
      <path d="M187.4,60.4c-1,.3-2,.4-3.1.4-1.1,0-2.2-.2-3.3-.6-1.9-.7-3.7-1.7-5.2-3.3-1.5-1.5-2.8-3.3-3.6-5.5,2.6-.9,5.2-1.8,7.8-2.6.3,1,.8,1.7,1.3,2.1.6.4,1,.7,1.4.8.7.2,1.3.3,2,.2.6-.1,1.2-.4,1.8-.9.4-.3.7-.7.8-1,.2-.4.3-.7.4-1,0-.3,0-.6,0-.9,0-.3,0-.5-.1-.7,0-.2-.1-.4-.2-.6-.1-.3-.3-.5-.5-.8-.2-.3-.5-.5-.9-.7-.3-.2-.8-.4-1.3-.5-.4,0-.8-.1-1.3-.2-.4,0-.9,0-1.4-.1-.9,0-1.8-.1-2.8-.2-1,0-2-.3-3-.6-1.4-.4-2.6-1-3.8-1.8-1.2-.8-2.2-1.8-3-2.9-.8-1.1-1.4-2.4-1.8-3.7-.4-1.4-.4-2.8-.2-4.2.2-1.3.7-2.6,1.4-3.7.7-1.1,1.6-2.1,2.6-3,1.1-.8,2.3-1.5,3.7-2,1.4-.5,2.8-.7,4.4-.8,1.5,0,2.9.1,4.2.5,1.3.4,2.5,1,3.5,1.8,1,.8,1.9,1.7,2.6,2.8.7,1.1,1.1,2.2,1.4,3.5-3,.6-5.9,1.2-8.8,2-.2-.8-.6-1.3-1.2-1.4-.6-.2-1.1-.3-1.5-.3,0,0-.2,0-.5,0-.3,0-.6.1-.9.2-.3.1-.6.4-.9.6-.3.3-.5.7-.6,1.1-.1.6,0,1.2.4,1.7.3.5.8.9,1.4,1.1.6.1,1.2.2,1.8.3.6,0,1.3.1,2,.1.6,0,1.3,0,1.9.1.6,0,1.3.2,2,.3,2.5.5,4.6,1.6,6.2,3.4,1.7,1.7,2.7,3.8,3.2,6.3.5,2.4.3,4.7-.4,6.9-.7,2.2-1.9,4-3.6,5.5-.7.6-1.3,1.1-2.1,1.4-.7.4-1.5.7-2.2.9Z"/>
      <path d="M217.1,25.4c-2.6.1-5.1.3-7.7.5.9,9.8,1.8,19.7,2.7,29.5-2.5.2-5,.5-7.5.8-1.4-9.8-2.9-19.6-4.3-29.3-2.5.3-5,.7-7.5,1.2-.6-2.9-1.1-5.8-1.7-8.7,8.5-1.5,17-2.5,25.6-2.8l.4,8.8Z"/>
      <path d="M263.4,38.1c-1.8,6.9-3.6,13.9-5.4,20.8-2.5-.6-4.9-1.1-7.4-1.6,0-.3.1-.6.2-.9-.9.2-1.8.3-2.7.3-.9,0-1.8,0-2.6-.2-2.1-.3-4.1-1-6-2.2-1.9-1.1-3.6-2.7-5.2-4.7-1.5-2-2.7-4.2-3.5-6.5-.8-2.4-1.1-4.8-1-7.3,0-2.5.6-4.9,1.7-7.2,1-2.3,2.6-4.4,4.7-6.1,2.1-1.7,4.5-3,7.2-3.6,2.7-.7,5.4-.8,8.1-.4,2.7.4,5.2,1.3,7.6,2.7,2.3,1.4,4.3,3.3,5.8,5.6-2.7,1.5-5.3,3.1-7.8,4.7-.8-1.2-1.8-2.1-3.1-2.9-1.2-.7-2.5-1.2-3.9-1.4-1.4-.2-2.8-.1-4.1.2-1.4.3-2.7,1-3.8,1.8-1.1.9-2,2-2.7,3.2-.6,1.2-1,2.5-1.1,3.8-.1,1.3,0,2.6.4,4,.4,1.3,1,2.5,1.8,3.6.7,1,1.6,1.8,2.5,2.4,1,.6,2,1.1,3,1.3,1.1.2,2.2.3,3.3.2,1.1-.1,2.2-.5,3.3-1,.1-.6.3-1.3.4-1.9-2.4-.4-4.7-.8-7.1-1.2.4-2.9.9-5.8,1.3-8.7,5.4.8,10.8,1.8,16.1,3.1Z"/>
      <path d="M278.4,34c-.6,1.8-1.3,3.7-1.9,5.5,4.1,1.3,8.1,2.8,12.1,4.5-1.2,2.7-2.4,5.4-3.6,8.1-3.7-1.6-7.5-3-11.4-4.3-.7,1.9-1.3,3.8-2,5.7,4.6,1.5,9,3.2,13.4,5.2-1.2,2.7-2.5,5.4-3.7,8-6.4-2.9-13.1-5.2-19.8-7,3.5-12.3,7-24.6,10.6-36.9,8.7,2.3,17.2,5.3,25.5,9-1.2,2.7-2.5,5.4-3.7,8-5-2.2-10.1-4.2-15.4-5.9Z"/>
      <path d="M297.3,63.7c-.4-.1-.8-.3-1.2-.5-.4-.2-.8-.3-1.2-.5-1.6,2.8-3.1,5.7-4.7,8.5-2.2-1.2-4.5-2.3-6.8-3.4,5.6-11.5,11.2-23,16.7-34.5,2.9,1.4,5.8,2.8,8.7,4.3,2.1,1.2,3.9,2.6,5.3,4.4,1.4,1.7,2.4,3.6,3,5.5.6,1.9.8,3.8.5,5.7-.3,1.9-1,3.6-2.1,5.2-1.2,1.7-2.6,3-4.3,4-1.7,1-3.5,1.6-5.5,1.9-.2,5.3-.7,10.5-1.4,15.6-2.4-1.7-4.9-3.4-7.5-5,.3-3.7.4-7.5.4-11.3ZM299.3,54.9c.8.4,1.7.7,2.6.8.9.2,1.7.2,2.5,0,.8-.1,1.5-.3,2.2-.7.7-.4,1.2-.9,1.6-1.5.4-.6.6-1.3.6-2,0-.7-.2-1.5-.5-2.2-.3-.8-.8-1.5-1.4-2.2-.6-.7-1.4-1.3-2.2-1.8-1.8,3.2-3.5,6.3-5.3,9.5Z"/>
      <path d="M359.5,79.3c-9.4,8.8-19,17.5-28.7,26-1.6-2.1-3.3-4.1-5.1-6.1,3.7-3.7,7.5-7.4,11.2-11.2-5.1,2.2-10.1,4.6-14.9,7.1-1.8-1.9-3.7-3.7-5.6-5.4,2.5-5.1,4.8-10.4,7-15.7-3.8,3.9-7.6,7.9-11.4,11.9-2-1.7-4-3.3-6.1-4.8,8.3-9.9,16.8-19.6,25.4-29.3,2.7,2.1,5.3,4.2,7.9,6.4-2.9,8.1-6.2,16.1-9.9,23.8,7.5-3.9,15.3-7.5,23.4-10.6,2.3,2.6,4.6,5.2,6.8,7.9Z"/>
      <path d="M346.5,120.9c-1.9-3.5-3.8-6.8-5.9-10-1.6.5-3.1.9-4.7,1.4-1.6-2.4-3.3-4.7-5-6.9,12.5-4.9,25.6-8.7,39.1-11.4,1.8,2.8,3.5,5.7,5.1,8.6-8.7,10.8-18.1,20.8-28.1,29.9-1.2-2.7-2.5-5.4-3.9-8,1.1-1.2,2.3-2.4,3.4-3.6ZM352.8,114c2.2-2.5,4.3-5,6.4-7.6-3.2.6-6.5,1.4-9.6,2.1,1.1,1.8,2.2,3.6,3.3,5.5Z"/>
      <path d="M394.4,157.3c-12.5,2.4-25.1,4.8-37.6,7.2-.6-3.4-1.4-6.6-2.2-9.8,6.1-6.1,11.9-12.8,17.2-20-7,2.6-14,5.2-21,7.8-1-2.8-2-5.5-3.2-8.1,11.7-5.2,23.3-10.5,35-15.7,1.6,3.7,3,7.5,4.4,11.4-5.2,7.6-10.9,14.7-16.9,21.3,7.2-1.9,14.4-3.8,21.7-5.7,1,3.8,1.8,7.7,2.6,11.7Z"/>
    </g>
    <g>
      <path class="st5" d="M84.9,149.9c0,.5-.1,1-.2,1.5,0,.5-.2,1-.3,1.5,3.1.8,6.2,1.6,9.3,2.5-.8,3-1.4,6-2,9.1-12.5-2.4-25-4.8-37.5-7.1.8-4,1.6-7.9,2.6-11.7.8-2.8,1.9-5.3,3.3-7.5,1.4-2.2,3.1-3.9,4.9-5.2,1.8-1.3,3.7-2.1,5.6-2.4,1.9-.3,3.8,0,5.6.6,1.9.8,3.5,1.9,4.8,3.5,1.3,1.6,2.3,3.4,2.9,5.4,5.3-1.4,10.6-2.5,15.8-3.3-1.3,3.2-2.4,6.4-3.5,9.7-3.8.9-7.5,2-11.3,3.3ZM75.8,150.7c.2-1.1.3-2.2.3-3.2,0-1.1-.2-2-.4-2.9-.3-.9-.6-1.6-1.1-2.2-.5-.6-1.1-1-1.8-1.3-.7-.2-1.4-.2-2.1,0-.7.2-1.4.7-2.1,1.3-.7.6-1.3,1.4-1.9,2.4-.6.9-1,2-1.3,3.1,3.5.9,7,1.8,10.4,2.8Z"/>
      <path class="st5" d="M76,117.3c1.7.9,3.5,1.7,5.2,2.6,2-4.4,4.2-8.6,6.6-12.7,2.5,1.5,5.1,3.1,7.6,4.6-2.2,3.8-4.3,7.8-6.2,12,1.8.9,3.6,1.8,5.5,2.7,2.3-4.9,4.8-9.6,7.5-14,2.5,1.6,5,3.2,7.5,4.7-4,6.5-7.5,13.5-10.4,21.1-11.8-4.9-23.6-9.8-35.4-14.6,3.8-9.7,8.2-18.7,13.3-27.1,2.5,1.6,5,3.2,7.5,4.7-3.1,5.1-6,10.4-8.6,16Z"/>
      <path class="st5" d="M119.8,74.8c1.8,1.9,3.1,4.1,3.9,6.4.9,2.3,1.3,4.7,1.5,7,1.3.3,2.5.6,3.7.9-.4,2.7-.7,5.4-1,8.1-1.3-.3-2.7-.6-4-.8-.4.9-.8,1.7-1.3,2.5-.5.8-1,1.6-1.7,2.3-1.5,1.8-3.3,3.2-5.4,4.3-2.1,1.1-4.3,1.8-6.6,2.1-2.3.3-4.8.3-7.2-.1-2.5-.4-4.9-1.4-7.1-2.8-2.2-1.5-4-3.3-5.4-5.5-1.3-2.2-2.2-4.7-2.5-7.3-.3-2.6,0-5.3.8-8.1.8-2.8,2.2-5.3,4.2-7.7,2-2.3,4.2-4.1,6.8-5.3,2.5-1.2,5.1-1.8,7.7-1.9,2.6,0,5,.4,7.4,1.4,2.4,1,4.4,2.5,6.2,4.5ZM114.2,95.5c.2-.3.4-.5.4-.6-2.6-.3-5.2-.6-7.8-.8.2-3,.5-6,1-9,2.9.4,5.7.8,8.5,1.3-.2-1-.5-1.9-1-2.8-.5-.9-1.1-1.8-1.9-2.5-1-1-2.1-1.7-3.4-2.2-1.3-.5-2.6-.7-4-.6-1.4,0-2.7.4-4,1.1-1.3.6-2.5,1.6-3.5,2.8-1,1.2-1.7,2.5-2.2,3.9-.4,1.4-.6,2.8-.4,4.2.1,1.4.6,2.7,1.2,3.9.7,1.2,1.6,2.2,2.7,3.1,1.2.9,2.4,1.4,3.7,1.8,1.3.3,2.6.4,3.9.2,1.3-.2,2.5-.5,3.7-1.1,1.2-.6,2.2-1.4,3.1-2.5Z"/>
      <path class="st5" d="M144,80c-1.4,1-2.9,1.7-4.5,2-1.7.4-3.4.4-5.2.2-1.9-.3-3.6-.8-5.3-1.7-1.7-.9-3.2-2-4.6-3.5-5.3-6-10.7-12.1-16-18.1,2.5-2.2,5-4.3,7.6-6.3,5,6.3,9.9,12.6,14.9,18.9,1,1.2,2.2,1.9,3.8,2.2,1.5.2,2.9-.1,4-.9.6-.4,1-.9,1.4-1.6.3-.6.6-1.3.7-2,.1-.7,0-1.4-.1-2.1-.2-.7-.5-1.4-.9-2.1-4.5-6.6-8.9-13.2-13.4-19.8,2.7-1.8,5.5-3.5,8.3-5.1,4.1,6.8,8.2,13.6,12.2,20.5,1.1,1.7,1.7,3.5,2.1,5.4.3,1.9.4,3.7,0,5.4-.3,1.7-.8,3.3-1.7,4.8-.8,1.5-1.9,2.7-3.3,3.8,0,0,0,0-.1,0Z"/>
      <path class="st5" d="M149.6,42.3c.9,1.7,1.8,3.5,2.6,5.2,3.9-1.9,7.8-3.6,11.8-5.2,1.1,2.7,2.2,5.5,3.3,8.2-3.8,1.5-7.5,3.1-11.2,4.9.9,1.8,1.8,3.6,2.7,5.4,4.3-2.1,8.7-4,13.3-5.6,1.1,2.8,2.1,5.5,3.2,8.3-6.6,2.4-13,5.3-19.2,8.8-6.4-11.1-12.8-22.2-19.3-33.3,7.9-4.4,16.1-8.2,24.6-11.3,1.1,2.8,2.1,5.5,3.2,8.3-5.1,1.9-10.2,4-15.2,6.4Z"/>
      <path class="st5" d="M187.4,60.4c-1,.3-2,.4-3.1.4-1.1,0-2.2-.2-3.3-.6-1.9-.7-3.7-1.7-5.2-3.3-1.5-1.5-2.8-3.3-3.6-5.5,2.6-.9,5.2-1.8,7.8-2.6.3,1,.8,1.7,1.3,2.1.6.4,1,.7,1.4.8.7.2,1.3.3,2,.2.6-.1,1.2-.4,1.8-.9.4-.3.7-.7.8-1,.2-.4.3-.7.4-1,0-.3,0-.6,0-.9,0-.3,0-.5-.1-.7,0-.2-.1-.4-.2-.6-.1-.3-.3-.5-.5-.8-.2-.3-.5-.5-.9-.7-.3-.2-.8-.4-1.3-.5-.4,0-.8-.1-1.3-.2-.4,0-.9,0-1.4-.1-.9,0-1.8-.1-2.8-.2-1,0-2-.3-3-.6-1.4-.4-2.6-1-3.8-1.8-1.2-.8-2.2-1.8-3-2.9-.8-1.1-1.4-2.4-1.8-3.7-.4-1.4-.4-2.8-.2-4.2.2-1.3.7-2.6,1.4-3.7.7-1.1,1.6-2.1,2.6-3,1.1-.8,2.3-1.5,3.7-2,1.4-.5,2.8-.7,4.4-.8,1.5,0,2.9.1,4.2.5,1.3.4,2.5,1,3.5,1.8,1,.8,1.9,1.7,2.6,2.8.7,1.1,1.1,2.2,1.4,3.5-3,.6-5.9,1.2-8.8,2-.2-.8-.6-1.3-1.2-1.4-.6-.2-1.1-.3-1.5-.3,0,0-.2,0-.5,0-.3,0-.6.1-.9.2-.3.1-.6.4-.9.6-.3.3-.5.7-.6,1.1-.1.6,0,1.2.4,1.7.3.5.8.9,1.4,1.1.6.1,1.2.2,1.8.3.6,0,1.3.1,2,.1.6,0,1.3,0,1.9.1.6,0,1.3.2,2,.3,2.5.5,4.6,1.6,6.2,3.4,1.7,1.7,2.7,3.8,3.2,6.3.5,2.4.3,4.7-.4,6.9-.7,2.2-1.9,4-3.6,5.5-.7.6-1.3,1.1-2.1,1.4-.7.4-1.5.7-2.2.9Z"/>
      <path class="st5" d="M217.1,25.4c-2.6.1-5.1.3-7.7.5.9,9.8,1.8,19.7,2.7,29.5-2.5.2-5,.5-7.5.8-1.4-9.8-2.9-19.6-4.3-29.3-2.5.3-5,.7-7.5,1.2-.6-2.9-1.1-5.8-1.7-8.7,8.5-1.5,17-2.5,25.6-2.8l.4,8.8Z"/>
      <path class="st5" d="M263.4,38.1c-1.8,6.9-3.6,13.9-5.4,20.8-2.5-.6-4.9-1.1-7.4-1.6,0-.3.1-.6.2-.9-.9.2-1.8.3-2.7.3-.9,0-1.8,0-2.6-.2-2.1-.3-4.1-1-6-2.2-1.9-1.1-3.6-2.7-5.2-4.7-1.5-2-2.7-4.2-3.5-6.5-.8-2.4-1.1-4.8-1-7.3,0-2.5.6-4.9,1.7-7.2,1-2.3,2.6-4.4,4.7-6.1,2.1-1.7,4.5-3,7.2-3.6,2.7-.7,5.4-.8,8.1-.4,2.7.4,5.2,1.3,7.6,2.7,2.3,1.4,4.3,3.3,5.8,5.6-2.7,1.5-5.3,3.1-7.8,4.7-.8-1.2-1.8-2.1-3.1-2.9-1.2-.7-2.5-1.2-3.9-1.4-1.4-.2-2.8-.1-4.1.2-1.4.3-2.7,1-3.8,1.8-1.1.9-2,2-2.7,3.2-.6,1.2-1,2.5-1.1,3.8-.1,1.3,0,2.6.4,4,.4,1.3,1,2.5,1.8,3.6.7,1,1.6,1.8,2.5,2.4,1,.6,2,1.1,3,1.3,1.1.2,2.2.3,3.3.2,1.1-.1,2.2-.5,3.3-1,.1-.6.3-1.3.4-1.9-2.4-.4-4.7-.8-7.1-1.2.4-2.9.9-5.8,1.3-8.7,5.4.8,10.8,1.8,16.1,3.1Z"/>
      <path class="st5" d="M278.4,34c-.6,1.8-1.3,3.7-1.9,5.5,4.1,1.3,8.1,2.8,12.1,4.5-1.2,2.7-2.4,5.4-3.6,8.1-3.7-1.6-7.5-3-11.4-4.3-.7,1.9-1.3,3.8-2,5.7,4.6,1.5,9,3.2,13.4,5.2-1.2,2.7-2.5,5.4-3.7,8-6.4-2.9-13.1-5.2-19.8-7,3.5-12.3,7-24.6,10.6-36.9,8.7,2.3,17.2,5.3,25.5,9-1.2,2.7-2.5,5.4-3.7,8-5-2.2-10.1-4.2-15.4-5.9Z"/>
      <path class="st5" d="M297.3,63.7c-.4-.1-.8-.3-1.2-.5-.4-.2-.8-.3-1.2-.5-1.6,2.8-3.1,5.7-4.7,8.5-2.2-1.2-4.5-2.3-6.8-3.4,5.6-11.5,11.2-23,16.7-34.5,2.9,1.4,5.8,2.8,8.7,4.3,2.1,1.2,3.9,2.6,5.3,4.4,1.4,1.7,2.4,3.6,3,5.5.6,1.9.8,3.8.5,5.7-.3,1.9-1,3.6-2.1,5.2-1.2,1.7-2.6,3-4.3,4-1.7,1-3.5,1.6-5.5,1.9-.2,5.3-.7,10.5-1.4,15.6-2.4-1.7-4.9-3.4-7.5-5,.3-3.7.4-7.5.4-11.3ZM299.3,54.9c.8.4,1.7.7,2.6.8.9.2,1.7.2,2.5,0,.8-.1,1.5-.3,2.2-.7.7-.4,1.2-.9,1.6-1.5.4-.6.6-1.3.6-2,0-.7-.2-1.5-.5-2.2-.3-.8-.8-1.5-1.4-2.2-.6-.7-1.4-1.3-2.2-1.8-1.8,3.2-3.5,6.3-5.3,9.5Z"/>
      <path class="st5" d="M359.5,79.3c-9.4,8.8-19,17.5-28.7,26-1.6-2.1-3.3-4.1-5.1-6.1,3.7-3.7,7.5-7.4,11.2-11.2-5.1,2.2-10.1,4.6-14.9,7.1-1.8-1.9-3.7-3.7-5.6-5.4,2.5-5.1,4.8-10.4,7-15.7-3.8,3.9-7.6,7.9-11.4,11.9-2-1.7-4-3.3-6.1-4.8,8.3-9.9,16.8-19.6,25.4-29.3,2.7,2.1,5.3,4.2,7.9,6.4-2.9,8.1-6.2,16.1-9.9,23.8,7.5-3.9,15.3-7.5,23.4-10.6,2.3,2.6,4.6,5.2,6.8,7.9Z"/>
      <path class="st5" d="M346.5,120.9c-1.9-3.5-3.8-6.8-5.9-10-1.6.5-3.1.9-4.7,1.4-1.6-2.4-3.3-4.7-5-6.9,12.5-4.9,25.6-8.7,39.1-11.4,1.8,2.8,3.5,5.7,5.1,8.6-8.7,10.8-18.1,20.8-28.1,29.9-1.2-2.7-2.5-5.4-3.9-8,1.1-1.2,2.3-2.4,3.4-3.6ZM352.8,114c2.2-2.5,4.3-5,6.4-7.6-3.2.6-6.5,1.4-9.6,2.1,1.1,1.8,2.2,3.6,3.3,5.5Z"/>
      <path class="st5" d="M394.4,157.3c-12.5,2.4-25.1,4.8-37.6,7.2-.6-3.4-1.4-6.6-2.2-9.8,6.1-6.1,11.9-12.8,17.2-20-7,2.6-14,5.2-21,7.8-1-2.8-2-5.5-3.2-8.1,11.7-5.2,23.3-10.5,35-15.7,1.6,3.7,3,7.5,4.4,11.4-5.2,7.6-10.9,14.7-16.9,21.3,7.2-1.9,14.4-3.8,21.7-5.7,1,3.8,1.8,7.7,2.6,11.7Z"/>
    </g>
  </g>
  <path class="st8" d="M218.4,41.7c-54.7,0-131.1,56.6-131.1,111.3s-4.9,11-11,11-11-4.9-11-11c0-66.8,86.2-133.2,153.1-133.2s11,4.9,11,11-5,10.9-11,10.9"/>
  <path class="st3" d="M299.3,248.5c-5.8,9.5-13.7,17.1-23,22.3-4,2.2-8.2,3.9-12.6,5.2-13.1,5.9-27.7,9-42.6,9.3-50.8.9-93-31.6-94.7-72.8-.8-20.2,11.3-41.2,20.6-57.3,7.9-13.7,21.5-37.2,39.4-46.6,36.5-19.2,85.8,1.1,110.4,45.6,7.1,12.9,11.7,27,13.2,41.1,1.1,4.6,1.8,9.3,1.8,14,.2,12.2-3.4,24.3-10.2,35.1-.7,1.4-1.4,2.7-2.2,4,0,.1-.1.1-.1.1"/>
  <path class="st1" d="M219,147.4c31.7,0,57.3,25.7,57.3,57.3s-25.7,57.3-57.3,57.3-57.3-25.7-57.3-57.3.9-11.5,2.5-16.9c4.5,10,14.5,16.9,26.1,16.9s28.6-12.9,28.6-28.6-6.9-21.7-16.9-26.1c5.4-1.7,11-2.5,17-2.6"/>
</svg>